<?xml version="1.0" standalone="no"?>
<!DOCTYPE svg PUBLIC "-//W3C//DTD SVG 20010904//EN"
 "http://www.w3.org/TR/2001/REC-SVG-20010904/DTD/svg10.dtd">
<svg version="1.0" xmlns="http://www.w3.org/2000/svg"
 width="800.000000pt" height="799.000000pt" viewBox="0 0 800.000000 799.000000"
 preserveAspectRatio="xMidYMid meet">

<g transform="translate(0.000000,799.000000) scale(0.100000,-0.100000)"
fill="#000000" stroke="none">
<path d="M3725 7424 c-629 -63 -1138 -241 -1630 -569 -712 -475 -1229 -1207
-1430 -2029 -109 -445 -130 -879 -64 -1331 194 -1339 1176 -2453 2479 -2811
289 -80 520 -113 835 -121 789 -20 1523 215 2150 687 1007 758 1516 1996 1334
3245 -140 962 -682 1818 -1494 2360 -442 296 -922 476 -1460 551 -114 15 -617
28 -720 18z m410 -2779 c39 -8 112 -36 164 -61 155 -76 267 -204 329 -376 24
-65 27 -87 27 -208 0 -112 -4 -147 -22 -205 -104 -329 -454 -525 -791 -444
-126 31 -276 126 -357 227 -98 123 -145 260 -145 422 -1 418 385 731 795 645z
m-1235 -899 c0 -27 52 -173 90 -252 76 -157 219 -322 367 -425 99 -68 238
-133 359 -166 92 -26 112 -28 284 -27 168 0 194 2 283 27 112 30 255 95 348
157 88 59 229 199 289 286 65 94 131 230 160 332 l24 82 884 0 885 0 -7 -62
c-74 -693 -409 -1352 -929 -1826 -1050 -957 -2624 -1018 -3742 -145 -619 484
-1013 1191 -1100 1976 l-6 57 905 0 c761 0 906 -2 906 -14z"/>
</g>
</svg>
